<svg xmlns="http://www.w3.org/2000/svg" viewBox="0 0 512 512">
  <defs>
    <linearGradient id="maskMain" x1="0%" y1="0%" x2="100%" y2="100%">
      <stop offset="0%" stop-color="#1d4ed8" />
      <stop offset="100%" stop-color="#06b6d4" />
    </linearGradient>
    <linearGradient id="maskSub" x1="0%" y1="0%" x2="100%" y2="100%">
      <stop offset="0%" stop-color="#f87171" />
      <stop offset="100%" stop-color="#facc15" />
    </linearGradient>
  </defs>
  <rect width="512" height="512" rx="156" fill="#dbeafe" />
  <rect x="74" y="82" width="232" height="256" rx="74" fill="url(#maskMain)" />
  <rect x="206" y="174" width="232" height="256" rx="74" fill="url(#maskSub)" />
  <circle cx="322" cy="302" r="76" fill="#ffffff" fill-opacity="0.94" />
  <path d="M297 245h36c33 0 55 17 55 45 0 18-10 31-27 38 19 6 31 20 31 41 0 30-24 48-60 48h-35V245Zm31 26v46h11c12 0 20-8 20-22 0-15-8-24-22-24h-9Zm0 71v49h12c15 0 24-9 24-24 0-16-9-25-25-25h-11Z" fill="#1e293b" />
</svg>
